#!OML:ASF X:\für Bonn\!DataBase\2005_08_12_Daniel\c3d\Daniel.ASF
:FULLY-SPECIFIED
:DEGREES
157
root -5.45322 17.9004 -26.8224 -15.4266 222.151 -348.354
lowerback 11.7565 0.494235 5.8534
upperback 2.85224 1.19266 1.21274
thorax -3.49499 0.460839 -2.19715
lowerneck -3.33125 6.47951 -0.429149
upperneck 6.89235 9.10489 -9.13002
head 3.29418 4.07145 -2.57333
rclavicle -3.08116e-015 -3.57812e-014
rhumerus -42.8047 20.7735 -92.545
rradius 89.2723
rwrist 4.75346
rhand -28.4131 29.8767
rfingers 7.12502
rthumb -1.78493 -0.0956072
lclavicle -3.08116e-015 -3.57812e-014
lhumerus -80.2851 -12.9524 95.7568
lradius 101.496
lwrist 21.2055
lhand -1.50214 -6.12139
lfingers 7.12502
lthumb 24.1508 22.3783
rfemur 13.2073 5.10449 16.9698
rtibia 29.9345
rfoot 6.66783 -10.372
rtoes -26.1039
lfemur -28.8226 5.13449 -20.5434
ltibia 46.439
lfoot -17.1449 -4.8991
ltoes -1.42633
158
root -5.68845 17.9639 -27.0039 -15.5986 222.881 -348.1
lowerback 11.2884 0.532918 5.65434
upperback 2.73172 1.20988 1.25881
thorax -3.36925 0.479034 -2.0338
lowerneck -3.27896 6.33701 -0.546702
upperneck 7.0323 8.90696 -8.67634
head 3.28563 3.98819 -2.40859
rclavicle 4.5472e-015 -2.70347e-014
rhumerus -43.8197 22.2185 -93.3737
rradius 91.3613
rwrist 4.03832
rhand -27.9172 29.8924
rfingers 7.12502
rthumb -1.30599 -0.0833219
lclavicle 4.5472e-015 -2.70347e-014
lhumerus -81.0945 -13.3114 95.4411
lradius 102.175
lwrist 21.3469
lhand -0.65781 -5.93198
lfingers 7.12502
lthumb 24.9602 22.4578
rfemur 13.7066 4.28031 16.912
rtibia 30.23
rfoot 8.47121 -10.3945
rtoes -24.8439
lfemur -28.2954 4.617 -20.2483
ltibia 43.3328
lfoot -18.2019 -4.01346
ltoes -2.67881
159
root -5.92556 18.0172 -27.1859 -15.8034 223.57 -347.844
lowerback 10.8451 0.562601 5.46819
upperback 2.60921 1.21891 1.3043
thorax -3.2588 0.492062 -1.87758
lowerneck -3.24299 6.21633 -0.788517
upperneck 7.19876 8.73914 -8.12699
head 3.27931 3.91807 -2.18878
rclavicle -2.8128e-014 -1.59028e-015
rhumerus -44.9303 23.5359 -94.24
rradius 93.3531
rwrist 3.43436
rhand -27.6534 29.8162
rfingers 7.12502
rthumb -1.0512 -0.160918
lclavicle -2.8128e-014 -1.59028e-015
lhumerus -82.012 -13.5763 95.1645
lradius 102.946
lwrist 21.4722
lhand 0.207012 -5.82455
lfingers 7.12502
lthumb 25.7886 22.4476
rfemur 14.1332 3.43071 16.8086
rtibia 30.7555
rfoot 9.93044 -10.2484
rtoes -23.8452
lfemur -27.8157 4.04917 -19.8949
ltibia 40.5169
lfoot -19.3867 -2.7708
ltoes -4.20908
160
root -6.16503 18.0554 -27.3643 -16.1371 224.174 -347.494
lowerback 10.4937 0.611101 5.41158
upperback 2.48858 1.27145 1.33957
thorax -3.19002 0.523591 -1.81152
lowerneck -3.24978 6.0639 -0.85409
upperneck 7.38988 8.5319 -7.74249
head 3.30993 3.82469 -2.05668
rclavicle -4.57702e-014 -3.97569e-015
rhumerus -46.0834 24.5636 -95.1903
rradius 95.2583
rwrist 2.90706
rhand -27.4407 29.7349
rfingers 7.12502
rthumb -0.845729 -0.243182
lclavicle -4.57702e-014 -3.97569e-015
lhumerus -83.0104 -13.9793 94.8789
lradius 103.8
lwrist 21.6527
lhand 1.03617 -5.73538
lfingers 7.12502
lthumb 26.5825 22.419
rfemur 14.49 2.56599 16.7229
rtibia 31.5056
rfoot 11.0883 -9.97537
rtoes -22.7705
lfemur -27.3293 3.34603 -19.4091
ltibia 38.0043
lfoot -20.4674 -1.22396
ltoes -4.66267
161
root -6.40426 18.076 -27.5405 -16.4983 224.777 -347.12
lowerback 10.1713 0.630076 5.39332
upperback 2.35819 1.29065 1.3569
thorax -3.14806 0.537399 -1.78168
lowerneck -3.16527 5.94634 -0.928116
upperneck 7.48456 8.36121 -7.37271
head 3.29309 3.75431 -1.92959
rclavicle -7.67309e-014 -1.03368e-014
rhumerus -47.3238 25.4858 -96.2524
rradius 97.0772
rwrist 2.44936
rhand -27.4661 29.6073
rfingers 7.12502
rthumb -0.870248 -0.370656
lclavicle -7.67309e-014 -1.03368e-014
lhumerus -83.8621 -14.2882 94.545
lradius 104.592
lwrist 21.8532
lhand 1.98493 -5.74203
lfingers 7.12502
lthumb 27.4902 22.2714
rfemur 14.7399 1.70737 16.6046
rtibia 32.4487
rfoot 11.8417 -9.69249
rtoes -21.7328
lfemur -26.9338 2.50527 -18.8996
ltibia 35.8468
lfoot -21.4369 0.498632
ltoes -4.15169
162
root -6.64599 18.0859 -27.713 -16.881 225.367 -346.769
lowerback 9.90004 0.644535 5.38494
upperback 2.24275 1.30589 1.38782
thorax -3.11874 0.548072 -1.74334
lowerneck -3.08016 5.81811 -1.09715
upperneck 7.55939 8.18051 -7.06556
head 3.26889 3.67262 -1.80787
rclavicle -9.69572e-014 2.14687e-014
rhumerus -48.5805 26.2932 -97.3023
rradius 98.7594
rwrist 1.97991
rhand -27.515 29.596
rfingers 7.12502
rthumb -0.917486 -0.381767
lclavicle -9.69572e-014 2.14687e-014
lhumerus -84.5561 -14.5456 94.3218
lradius 105.448
lwrist 22.1065
lhand 2.75916 -5.62816
lfingers 7.12502
lthumb 28.2304 22.2653
rfemur 14.9034 0.837338 16.3994
rtibia 33.5782
rfoot 12.2959 -9.41092
rtoes -20.9568
lfemur -26.5937 1.53763 -18.3987
ltibia 34.0645
lfoot -22.4525 2.28666
ltoes -2.63426
163
root -6.88786 18.0802 -27.8841 -17.33 225.887 -346.36
lowerback 9.66836 0.659887 5.44743
upperback 2.13937 1.32944 1.40461
thorax -3.09577 0.561652 -1.76078
lowerneck -3.03756 5.7013 -1.24382
upperneck 7.61092 8.01532 -6.75939
head 3.24759 3.5997 -1.68887
rclavicle -3.84648e-014 1.59028e-015
rhumerus -49.8026 26.9924 -98.4375
rradius 100.228
rwrist 1.67913
rhand -27.7054 29.6416
rfingers 7.12502
rthumb -1.10134 -0.335329
lclavicle -3.84648e-014 1.59028e-015
lhumerus -85.158 -14.7898 94.061
lradius 106.301
lwrist 22.299
lhand 3.37146 -5.61753
lfingers 7.12502
lthumb 28.8155 22.1778
rfemur 15.019 -0.0656647 16.173
rtibia 34.8638
rfoot 12.5183 -9.03717
rtoes -19.7985
lfemur -26.2934 0.608932 -17.8392
ltibia 32.6795
lfoot -23.6411 4.26121
ltoes -1.89784
164
root -7.12743 18.0626 -28.052 -17.8519 226.44 -345.946
lowerback 9.51757 0.639673 5.51682
upperback 2.05505 1.30899 1.43227
thorax -3.10068 0.551862 -1.76675
lowerneck -2.87705 5.58895 -1.44134
upperneck 7.53024 7.84952 -6.54598
head 3.16236 3.52721 -1.59586
rclavicle 6.57232e-015 0
rhumerus -50.9102 27.5859 -99.5586
rradius 101.507
rwrist 1.44178
rhand -27.7913 29.7597
rfingers 7.12502
rthumb -1.18438 -0.216744
lclavicle 6.57232e-015 0
lhumerus -85.5988 -15.0206 93.8292
lradius 107.12
lwrist 22.6607
lhand 3.80983 -5.63437
lfingers 7.12502
lthumb 29.2341 22.0889
rfemur 15.118 -0.970709 15.9436
rtibia 36.2692
rfoot 12.521 -8.63361
rtoes -18.7175
lfemur -26.0357 -0.336087 -17.2854
ltibia 31.6705
lfoot -24.8394 6.26392
ltoes -1.92992
165
root -7.36679 18.0331 -28.2182 -18.2918 226.985 -345.627
lowerback 9.40797 0.615973 5.4763
upperback 1.9449 1.27825 1.44776
thorax -3.15854 0.536688 -1.72367
lowerneck -2.7804 5.51874 -1.51048
upperneck 7.48584 7.74695 -6.46274
head 3.11787 3.48155 -1.56342
rclavicle -1.55214e-013 7.95139e-015
rhumerus -52.111 28.1075 -100.686
rradius 102.704
rwrist 1.40944
rhand -27.8981 29.8329
rfingers 7.12502
rthumb -1.28749 -0.142978
lclavicle -1.55214e-013 7.95139e-015
lhumerus -85.878 -15.1718 93.6106
lradius 107.882
lwrist 22.9299
lhand 4.1781 -5.62861
lfingers 7.12502
lthumb 29.5857 22.0329
rfemur 15.132 -1.84719 15.5998
rtibia 37.776
rfoot 12.3563 -8.1043
rtoes -17.8797
lfemur -25.877 -1.20078 -16.8247
ltibia 31.0283
lfoot -26.0555 8.21929
ltoes -2.22217
166
root -7.6031 17.9886 -28.3829 -18.881 227.507 -345.252
lowerback 9.43629 0.58527 5.45861
upperback 1.8817 1.24439 1.47503
thorax -3.24368 0.518098 -1.68253
lowerneck -2.81051 5.43504 -1.50946
upperneck 7.48574 7.63647 -6.44827
head 3.11942 3.42752 -1.56237
rclavicle 2.03941e-014 0
rhumerus -53.1591 28.4371 -101.77
rradius 103.884
rwrist 1.574
rhand -27.8636 29.8199
rfingers 7.12502
rthumb -1.25422 -0.156113
lclavicle 2.03941e-014 0
lhumerus -85.8571 -15.3922 93.4511
lradius 108.562
lwrist 23.2169
lhand 4.2222 -5.46101
lfingers 7.12502
lthumb 29.6278 22.193
rfemur 15.2025 -2.62309 15.3371
rtibia 39.3961
rfoot 11.9579 -7.567
rtoes -17.8009
lfemur -25.7106 -1.81663 -16.3919
ltibia 30.6696
lfoot -27.003 9.89938
ltoes -2.19827
167
root -7.83591 17.931 -28.5427 -19.7419 227.968 -344.738
lowerback 9.71788 0.522329 5.51306
upperback 1.84783 1.18802 1.5635
thorax -3.43988 0.482842 -1.61874
lowerneck -2.85845 5.40024 -1.49628
upperneck 7.45714 7.59438 -6.51112
head 3.12136 3.40485 -1.58588
rclavicle -1.18783e-013 -8.74653e-015
rhumerus -54.0514 28.6666 -102.829
rradius 104.876
rwrist 1.81792
rhand -27.6175 29.881
rfingers 7.12502
rthumb -1.01646 -0.0963099
lclavicle -1.18783e-013 -8.74653e-015
lhumerus -85.7769 -15.4939 93.288
lradius 109.224
lwrist 23.4496
lhand 4.33776 -5.33414
lfingers 7.12502
lthumb 29.7381 22.3002
rfemur 15.3107 -3.33672 15.194
rtibia 41.1466
rfoot 11.502 -6.997
rtoes -18.0391
lfemur -25.4539 -2.15494 -15.9257
ltibia 30.5737
lfoot -27.9375 10.9922
ltoes -2.93335
